<svg width="40" height="40" viewBox="0 0 40 40" fill="none" xmlns="http://www.w3.org/2000/svg">
<g clip-path="url(#clip0_1015_22)">
<path d="M7.5 25C3.35938 25 0 21.6406 0 17.5C0 14.1797 2.15625 11.3594 5.14844 10.375C5.05469 9.85156 5 9.30469 5 8.75C5 3.91406 8.91406 0 13.75 0C17.1172 0 20.0391 1.89844 21.5 4.6875C22.6484 3.35156 24.3516 2.5 26.25 2.5C29.7031 2.5 32.5 5.29687 32.5 8.75C32.5 9.17969 32.4531 9.59375 32.375 10C32.4141 10 32.4609 10 32.5 10C36.6406 10 40 13.3594 40 17.5C40 21.6406 36.6406 25 32.5 25H7.5ZM6.96875 29.0625C7.07031 28.8672 7.27344 28.75 7.5 28.75C7.72656 28.75 7.92188 28.8672 8.03125 29.0625L10.7734 34.1094C11.0937 34.6953 11.2578 35.3437 11.2578 36.0078V36.2422C11.2578 38.3125 9.57812 39.9922 7.50781 39.9922C5.4375 39.9922 3.75781 38.3125 3.75781 36.2422V36.0078C3.75781 35.3437 3.92187 34.6875 4.24219 34.1094L6.96875 29.0625ZM19.4687 29.0625C19.5703 28.8672 19.7734 28.75 20 28.75C20.2266 28.75 20.4219 28.8672 20.5312 29.0625L23.2734 34.1094C23.5937 34.6953 23.7578 35.3437 23.7578 36.0078V36.2422C23.7578 38.3125 22.0781 39.9922 20.0078 39.9922C17.9375 39.9922 16.2578 38.3125 16.2578 36.2422V36.0078C16.2578 35.3437 16.4219 34.6875 16.7422 34.1094L19.4687 29.0625ZM29.2266 34.1094L31.9688 29.0625C32.0703 28.8672 32.2734 28.75 32.5 28.75C32.7266 28.75 32.9219 28.8672 33.0312 29.0625L35.7734 34.1094C36.0937 34.6953 36.2578 35.3437 36.2578 36.0078V36.2422C36.2578 38.3125 34.5781 39.9922 32.5078 39.9922C30.4375 39.9922 28.7578 38.3125 28.7578 36.2422V36.0078C28.7578 35.3437 28.9219 34.6875 29.2422 34.1094H29.2266Z" fill="#CDCDCD"/>
</g>
<defs>
<clipPath id="clip0_1015_22">
<rect width="40" height="40" fill="white"/>
</clipPath>
</defs>
</svg>
