<svg width="117" height="94" viewBox="0 0 117 94" fill="none" xmlns="http://www.w3.org/2000/svg">
<g clip-path="url(#clip0_1015_18)">
<path d="M53.7834 0.221931C54.7158 0.607478 55.3739 1.45201 55.5384 2.44342L58.1161 17.9938L73.6003 20.5825C74.5875 20.7477 75.4284 21.4087 75.8123 22.345C76.1962 23.2813 76.0866 24.3462 75.5198 25.1723L68.4816 35.27C68.0794 35.2516 67.6772 35.2333 67.2567 35.2333C62.9972 35.2333 59.0119 36.3715 55.5567 38.3727V38.1708C55.5567 28.4403 47.6958 20.5458 38.0067 20.5458C28.3176 20.5458 20.4567 28.4403 20.4567 38.1708C20.4567 47.9012 28.3176 55.7958 38.0067 55.7958C39.4875 55.7958 40.9134 55.6122 42.2845 55.2633C35.5936 58.5864 30.7125 65.0122 29.5242 72.6864L25.0636 75.8075C24.2409 76.395 23.1806 76.5051 22.2483 76.1012C21.3159 75.6973 20.6578 74.8712 20.4933 73.8797L17.9339 58.3661L2.44968 55.7774C1.46249 55.6122 0.621557 54.9512 0.237651 54.0149C-0.146255 53.0786 -0.0365679 52.0137 0.530151 51.1876L9.59765 38.1891L0.530151 25.1907C-0.0548491 24.3645 -0.164537 23.2997 0.237651 22.3633C0.639838 21.427 1.46249 20.7661 2.44968 20.6008L17.9339 18.0122L20.5116 2.46178C20.6761 1.47037 21.3342 0.625838 22.2666 0.240291C23.1989 -0.145256 24.2592 -0.0350999 25.0819 0.534041L38.025 9.64029L50.9681 0.534041C51.7908 -0.0534593 52.8511 -0.163616 53.7834 0.240291V0.221931ZM26.325 38.1891C26.325 35.0728 27.5577 32.0842 29.7518 29.8806C31.946 27.6771 34.922 26.4391 38.025 26.4391C41.128 26.4391 44.104 27.6771 46.2981 29.8806C48.4923 32.0842 49.725 35.0728 49.725 38.1891C49.725 41.3054 48.4923 44.2941 46.2981 46.4976C44.104 48.7012 41.128 49.9391 38.025 49.9391C34.922 49.9391 31.946 48.7012 29.7518 46.4976C27.5577 44.2941 26.325 41.3054 26.325 38.1891ZM116.982 79.2958C116.982 87.4106 110.437 93.9833 102.357 93.9833C102.357 93.9833 62.3391 93.9833 52.65 93.9833C42.9609 93.9833 35.1 86.0887 35.1 76.3583C35.1 67.6192 41.4253 60.3856 49.725 58.9903V58.7516C49.725 49.0211 57.5859 41.1266 67.275 41.1266C73.6552 41.1266 79.2309 44.5415 82.3022 49.6454C84.6787 47.9747 87.5672 47.0016 90.675 47.0016C98.7553 47.0016 105.3 53.5743 105.3 61.6891C105.3 62.7723 105.19 63.8372 104.953 64.8469C111.79 66.077 116.982 72.0805 116.982 79.2958Z" fill="url(#paint0_linear_1015_18)"/>
</g>
<defs>
<linearGradient id="paint0_linear_1015_18" x1="41.5" y1="40" x2="60" y2="61.5" gradientUnits="userSpaceOnUse">
<stop stop-color="#FBFF4D"/>
<stop offset="1" stop-color="#95CCFF"/>
</linearGradient>
<clipPath id="clip0_1015_18">
<rect width="117" height="94" fill="white"/>
</clipPath>
</defs>
</svg>
