<svg width="116" height="132" viewBox="0 0 116 132" fill="none" xmlns="http://www.w3.org/2000/svg">
<g clip-path="url(#clip0_1015_16)">
<path d="M57.9995 0C62.5826 0 66.2853 3.68672 66.2853 8.25V16.0102L70.1692 12.143C72.6031 9.71953 76.5388 9.71953 78.9469 12.143C81.3549 14.5664 81.3808 18.4852 78.9469 20.8828L66.2594 33.5156V51.6398L82.1576 42.4102L86.7406 25.3688C87.621 22.0688 91.0388 20.1094 94.3531 20.9859C97.6674 21.8625 99.6353 25.2656 98.7549 28.5656L97.4085 33.5414L103.519 29.9836C107.481 27.6891 112.556 29.0297 114.86 32.9484C117.165 36.8672 115.844 41.9461 111.883 44.2406L105.332 48.0562L110.95 49.5516C114.265 50.4281 116.233 53.8313 115.352 57.1313C114.472 60.4313 111.054 62.3906 107.74 61.5141L90.2103 56.8477L74.4415 66L90.2103 75.1523L107.74 70.4859C111.054 69.6094 114.472 71.5687 115.352 74.8687C116.233 78.1687 114.265 81.5719 110.95 82.4484L105.332 83.9438L111.883 87.7594C115.844 90.0539 117.165 95.107 114.86 99.0516C112.556 102.996 107.481 104.311 103.519 102.016L97.4085 98.4586L98.7549 103.434C99.6353 106.734 97.6674 110.138 94.3531 111.014C91.0388 111.891 87.621 109.931 86.7406 106.631L82.1576 89.5898L66.2853 80.3602V98.4844L78.9728 111.117C81.4067 113.541 81.4067 117.459 78.9728 119.857C76.5388 122.255 72.6031 122.28 70.1951 119.857L66.3111 115.99V123.75C66.3111 128.313 62.6085 132 58.0254 132C53.4424 132 49.7397 128.313 49.7397 123.75V115.99L45.8558 119.857C43.4219 122.28 39.4861 122.28 37.0781 119.857C34.6701 117.434 34.6442 113.515 37.0781 111.117L49.7656 98.4844V80.3602L33.8674 89.5898L29.2844 106.631C28.404 109.931 24.9861 111.891 21.6719 111.014C18.3576 110.138 16.3897 106.734 17.2701 103.434L18.6165 98.4586L12.454 101.991C8.4924 104.285 3.4174 102.945 1.11293 99.0258C-1.19153 95.107 0.154897 90.0281 4.09061 87.7336L10.6415 83.918L5.02275 82.4227C1.70847 81.5461 -0.259389 78.143 0.620969 74.843C1.50133 71.543 4.91918 69.5836 8.23347 70.4602L25.7629 75.1266L41.5576 66L25.7888 56.8477L8.25936 61.5141C4.94508 62.3906 1.52722 60.4313 0.646861 57.1313C-0.233496 53.8313 1.73436 50.4281 5.04865 49.5516L10.6674 48.0562L4.1165 44.2406C0.154897 41.9461 -1.16564 36.893 1.13883 32.9742C3.44329 29.0555 8.51829 27.7148 12.4799 30.0094L18.5906 33.5672L17.2442 28.5914C16.3638 25.2914 18.3317 21.8883 21.646 21.0117C24.9603 20.1352 28.3781 22.0945 29.2585 25.3945L33.8415 42.4359L49.7138 51.6398V33.4898L37.0263 20.8828C34.5924 18.4594 34.5924 14.5406 37.0263 12.143C39.4603 9.74531 43.396 9.71953 45.804 12.143L49.6879 16.0102V8.25C49.6879 3.68672 53.3906 0 57.9736 0H57.9995Z" fill="white"/>
</g>
<defs>
<clipPath id="clip0_1015_16">
<rect width="116" height="132" fill="white"/>
</clipPath>
</defs>
</svg>
