<svg width="93" height="93" viewBox="0 0 93 93" fill="none" xmlns="http://www.w3.org/2000/svg">
<g clip-path="url(#clip0_1015_8)">
<path d="M46.5 93C58.8326 93 70.66 88.1009 79.3805 79.3805C88.1009 70.66 93 58.8326 93 46.5C93 34.1674 88.1009 22.34 79.3805 13.6195C70.66 4.89909 58.8326 0 46.5 0C34.1674 0 22.34 4.89909 13.6195 13.6195C4.89909 22.34 0 34.1674 0 46.5C0 58.8326 4.89909 70.66 13.6195 79.3805C22.34 88.1009 34.1674 93 46.5 93ZM30.8426 30.0252C32.2775 25.9746 36.1283 23.25 40.4332 23.25H51.0229C57.3621 23.25 62.4844 28.3904 62.4844 34.7115C62.4844 38.8166 60.2865 42.6129 56.7264 44.6654L50.8594 48.0258C50.823 50.3871 48.8795 52.3125 46.5 52.3125C44.0842 52.3125 42.1406 50.3689 42.1406 47.9531V45.501C42.1406 43.9389 42.9762 42.5039 44.3385 41.7229L52.3852 37.1092C53.2389 36.6188 53.7656 35.7105 53.7656 34.7297C53.7656 33.2039 52.5305 31.9869 51.0229 31.9869H40.4332C39.8156 31.9869 39.2707 32.3684 39.0709 32.9496L38.9982 33.1676C38.199 35.4381 35.6924 36.6187 33.44 35.8195C31.1877 35.0203 29.9889 32.5137 30.7881 30.2613L30.8607 30.0434L30.8426 30.0252ZM40.6875 63.9375C40.6875 62.3959 41.2999 60.9175 42.3899 59.8274C43.48 58.7374 44.9584 58.125 46.5 58.125C48.0416 58.125 49.52 58.7374 50.6101 59.8274C51.7001 60.9175 52.3125 62.3959 52.3125 63.9375C52.3125 65.4791 51.7001 66.9575 50.6101 68.0476C49.52 69.1376 48.0416 69.75 46.5 69.75C44.9584 69.75 43.48 69.1376 42.3899 68.0476C41.2999 66.9575 40.6875 65.4791 40.6875 63.9375Z" fill="white"/>
</g>
<defs>
<clipPath id="clip0_1015_8">
<rect width="93" height="93" fill="white"/>
</clipPath>
</defs>
</svg>
