<svg width="101" height="101" viewBox="0 0 101 101" fill="none" xmlns="http://www.w3.org/2000/svg">
<g clip-path="url(#clip0_1015_10)">
<path d="M0 44.1875C0 54.6426 8.48242 63.125 18.9375 63.125H28.2484L57.207 39.9463C60.6789 37.1648 65.6105 37.1846 69.0824 39.9857C72.5543 42.7869 73.5801 47.6002 71.6074 51.585L65.8275 63.125H69.4375H82.0625C92.5176 63.125 101 54.6426 101 44.1875C101 33.7324 92.5176 25.25 82.0625 25.25C81.9639 25.25 81.8455 25.25 81.7469 25.25C81.9639 24.2242 82.0625 23.1787 82.0625 22.0938C82.0625 13.3746 75.0004 6.3125 66.2812 6.3125C61.4877 6.3125 57.1873 8.4627 54.2875 11.8359C50.5986 4.79355 43.2209 0 34.7188 0C22.508 0 12.625 9.88301 12.625 22.0938C12.625 23.4943 12.7631 24.8752 12.9998 26.1969C5.44453 28.6824 0 35.8037 0 44.1875ZM65.1174 44.8977C63.9732 43.9705 62.3162 43.9705 61.1523 44.8779L29.5898 70.1279C28.5443 70.9564 28.1301 72.3768 28.5838 73.6393C29.0375 74.9018 30.2211 75.75 31.5625 75.75H45.3908L35.0541 96.4234C34.3834 97.7451 34.7385 99.3627 35.9023 100.29C37.0662 101.217 38.7035 101.217 39.8674 100.31L71.4299 75.0596C72.4754 74.2311 72.8897 72.8107 72.4359 71.5482C71.9822 70.2857 70.7986 69.4375 69.4572 69.4375H55.6092L65.9459 48.7641C66.6166 47.4424 66.2615 45.8248 65.1174 44.8977Z" fill="url(#paint0_linear_1015_10)"/>
</g>
<defs>
<linearGradient id="paint0_linear_1015_10" x1="50.5" y1="0" x2="50.5" y2="100.988" gradientUnits="userSpaceOnUse">
<stop stop-color="#1572DF"/>
<stop offset="1" stop-color="#B5B5B5"/>
</linearGradient>
<clipPath id="clip0_1015_10">
<rect width="101" height="101" fill="white"/>
</clipPath>
</defs>
</svg>
