<svg width="100" height="80" viewBox="0 0 100 80" fill="none" xmlns="http://www.w3.org/2000/svg">
<g clip-path="url(#clip0_1015_6)">
<path d="M77.4687 0C78.3281 0 79.1719 0.03125 80.0156 0.109375C81.1094 0.203125 82.0156 1 82.25 2.0625C82.4844 3.125 82 4.23438 81.0469 4.76562C74.1094 8.70312 69.4219 16.1719 69.4219 24.7344C69.4219 37.3906 79.6562 47.6406 92.2656 47.6406C93.6094 47.6406 94.9219 47.5312 96.1875 47.3125C97.2656 47.125 98.3437 47.6562 98.8437 48.6406C99.3437 49.625 99.1406 50.7969 98.3594 51.5625C92.9687 56.8125 85.5937 60.0625 77.4844 60.0625C76.0312 60.0625 74.6094 59.9531 73.2031 59.7656C71.4531 56.2344 68.5469 53.375 64.9844 51.6875C64.5625 42.5469 57.125 35.2344 47.9219 35.0156C47.6562 33.3906 47.5156 31.7344 47.5156 30.0469C47.5 13.4531 60.9062 0 77.4687 0ZM69.9844 67.4844C69.9844 74.3906 64.3906 79.9844 57.4844 79.9844H15C6.71875 79.9844 0 73.2656 0 64.9844C0 57.5469 5.40625 51.3906 12.5 50.2031V50C12.5 41.7188 19.2187 35 27.5 35C32.9531 35 37.7187 37.9062 40.3437 42.25C42.375 40.8281 44.8437 40 47.5 40C54.4062 40 60 45.5938 60 52.5C60 53.4219 59.9062 54.3281 59.7031 55.1875C65.5469 56.2344 69.9844 61.3438 69.9844 67.4844Z" fill="url(#paint0_linear_1015_6)"/>
</g>
<defs>
<linearGradient id="paint0_linear_1015_6" x1="43" y1="53.5" x2="79.5" y2="33" gradientUnits="userSpaceOnUse">
<stop stop-color="#95CCFF"/>
<stop offset="1" stop-color="#FBFF4D"/>
</linearGradient>
<clipPath id="clip0_1015_6">
<rect width="100" height="80" fill="white"/>
</clipPath>
</defs>
</svg>
