<svg width="146" height="117" viewBox="0 0 146 117" fill="none" xmlns="http://www.w3.org/2000/svg">
<path d="M0 76.7812C0 94.9482 14.7141 109.688 32.85 109.688H116.8C132.928 109.688 146 96.5936 146 80.4375C146 66.2924 135.962 54.4781 122.64 51.7816C123.575 49.3365 124.1 46.6629 124.1 43.875C124.1 31.7637 114.291 21.9375 102.2 21.9375C97.7059 21.9375 93.5084 23.3086 90.0409 25.6395C83.7219 14.6707 71.9278 7.3125 58.4 7.3125C38.2338 7.3125 21.9 23.6742 21.9 43.875C21.9 44.492 21.9228 45.109 21.9456 45.726C9.17062 50.2277 0 62.4305 0 76.7812Z" fill="white"/>
</svg>
