<svg width="154" height="123" viewBox="0 0 154 123" fill="none" xmlns="http://www.w3.org/2000/svg">
<g clip-path="url(#clip0_1015_20)">
<path d="M7.7 34.5938C7.7 53.6924 23.2203 69.1875 42.35 69.1875H72.0191C77.4572 73.9682 84.5797 76.875 92.4 76.875C100.22 76.875 107.343 73.9682 112.781 69.1875H119.35C134.245 69.1875 146.3 57.1518 146.3 42.2812C146.3 27.4107 134.245 15.375 119.35 15.375C116.775 15.375 114.297 15.7354 111.939 16.408C106.789 6.65449 96.5147 0 84.7 0C76.8556 0 69.685 2.93086 64.2228 7.75957C58.2553 2.90684 50.6516 0 42.35 0C23.2203 0 7.7 15.4951 7.7 34.5938ZM148.225 88.4062H67.375C64.1747 88.4062 61.6 90.9768 61.6 94.1719C61.6 97.367 64.1747 99.9375 67.375 99.9375H148.225C151.425 99.9375 154 97.367 154 94.1719C154 90.9768 151.425 88.4062 148.225 88.4062ZM132.825 111.469H105.875C102.675 111.469 100.1 114.039 100.1 117.234C100.1 120.429 102.675 123 105.875 123H132.825C136.025 123 138.6 120.429 138.6 117.234C138.6 114.039 136.025 111.469 132.825 111.469ZM86.625 111.469H5.775C2.57469 111.469 0 114.039 0 117.234C0 120.429 2.57469 123 5.775 123H86.625C89.8253 123 92.4 120.429 92.4 117.234C92.4 114.039 89.8253 111.469 86.625 111.469ZM53.9 94.1719C53.9 90.9768 51.3253 88.4062 48.125 88.4062H23.1C19.8997 88.4062 17.325 90.9768 17.325 94.1719C17.325 97.367 19.8997 99.9375 23.1 99.9375H48.125C51.3253 99.9375 53.9 97.367 53.9 94.1719Z" fill="white"/>
</g>
<defs>
<clipPath id="clip0_1015_20">
<rect width="154" height="123" fill="white"/>
</clipPath>
</defs>
</svg>
